# xmcd
#
# Track frame offsets:
#	183
#	10750
#	22960
#	37115
#	48778
#	59378
#	72248
#	84328
#	95500
#	107930
#	118005
#	132068
#	151438
#	163873
#	177868
#	193553
#	209065
#	219068
#	232675
#	243820
#	256908
#	269688
#	281048
#	292195
#
# Disc length: 4073
#
# Revision: 3
# Processed by: cddbd v1.5.1PL0 Copyright (c) Steve Scherf et al.
# Submitted via: CDex 1.40Release
# Normalized: r2:DSETVAR1,TDELIM( - )
#
DISCID=550fe718
DTITLE=Various Artist - 24 Electric Blues Hits
DYEAR=1990
DGENRE=Blues
TTITLE0=Bo Diddley - Mona
TTITLE1=Howlin' Wolf - Spoonful
TTITLE2=Sonny Boy Williamson - Help Me
TTITLE3=Etta James - I'd Rather Go Blind
TTITLE4=Chuck Berry - Almost Grown
TTITLE5=Muddy Waters - I Just Wanna Make Love To You
TTITLE6=Wilbert Harrison - Let's Work Together
TTITLE7=Elmore James - Rollin' and Tumblin'
TTITLE8=Jimmy Reed - Bright Lights, Big City
TTITLE9=John Lee Hooker - Dimples
TTITLE10=Bo Diddley - You Can't Judge A Book By Its Cover
TTITLE11=Muddy Waters - I've Got My Mojo Working (live)
TTITLE12=Bo Diddley - I'm A Man
TTITLE13=Howlin' Wolf - Smokestack Lightning
TTITLE14=Albert King - Born Under A Bad Sign
TTITLE15=Etta James - Rock Me Baby
TTITLE16=Chuck Berry - Memphis
TTITLE17=Muddy Waters - Baby Please Don't Go
TTITLE18=Wilbert Harrison - Kansas City
TTITLE19=Elmore James - Dust My Broom
TTITLE20=Tommy Tucker - High Heel Sneakers
TTITLE21=John Lee Hooker - Boom Boom
TTITLE22=Bo Diddley - Who Do You Love
TTITLE23=Muddy Waters - Hoochie Coochie Man
EXTD=YEAR: 1990 ID3G: 0
EXTT0=
EXTT1=
EXTT2=
EXTT3=
EXTT4=
EXTT5=
EXTT6=
EXTT7=
EXTT8=
EXTT9=
EXTT10=
EXTT11=
EXTT12=
EXTT13=
EXTT14=
EXTT15=
EXTT16=
EXTT17=
EXTT18=
EXTT19=
EXTT20=
EXTT21=
EXTT22=
EXTT23=
PLAYORDER=
